<svg width="14" height="14" viewBox="0 0 14 14" fill="none" xmlns="http://www.w3.org/2000/svg">
<path fill-rule="evenodd" clip-rule="evenodd" d="M1.30981 12.6905C2.28612 13.6668 3.85747 13.6668 7.00016 13.6668C10.1429 13.6668 11.7142 13.6668 12.6905 12.6905C13.6668 11.7142 13.6668 10.1429 13.6668 7.00016C13.6668 3.85747 13.6668 2.28612 12.6905 1.30981C11.7142 0.333496 10.1429 0.333496 7.00016 0.333496C3.85747 0.333496 2.28612 0.333496 1.30981 1.30981C0.333496 2.28612 0.333496 3.85747 0.333496 7.00016C0.333496 10.1429 0.333496 11.7142 1.30981 12.6905ZM11.5002 9.66683C11.5002 9.94297 11.2763 10.1668 11.0002 10.1668H3.00016C2.72402 10.1668 2.50016 9.94297 2.50016 9.66683C2.50016 9.39069 2.72402 9.16683 3.00016 9.16683H11.0002C11.2763 9.16683 11.5002 9.39069 11.5002 9.66683ZM11.0002 7.50016C11.2763 7.50016 11.5002 7.2763 11.5002 7.00016C11.5002 6.72402 11.2763 6.50016 11.0002 6.50016H3.00016C2.72402 6.50016 2.50016 6.72402 2.50016 7.00016C2.50016 7.2763 2.72402 7.50016 3.00016 7.50016H11.0002ZM11.5002 4.3335C11.5002 4.60964 11.2763 4.8335 11.0002 4.8335H3.00016C2.72402 4.8335 2.50016 4.60964 2.50016 4.3335C2.50016 4.05735 2.72402 3.8335 3.00016 3.8335H11.0002C11.2763 3.8335 11.5002 4.05735 11.5002 4.3335Z" fill="#979797" fill-opacity="0.5"/>
</svg>
