<svg width="14" height="14" viewBox="0 0 14 14" fill="none" xmlns="http://www.w3.org/2000/svg">
<path d="M9.6665 2.8976C11.5521 2.8976 12.4949 2.8976 13.0807 3.49841C13.6665 4.09921 13.6665 5.0662 13.6665 7.00016C13.6665 8.93413 13.6665 9.90111 13.0807 10.5019C12.4949 11.1027 11.5521 11.1027 9.6665 11.1027L4.33317 11.1027C2.44755 11.1027 1.50474 11.1027 0.918957 10.5019C0.33317 9.90111 0.333171 8.93413 0.333172 7.00016C0.333172 5.06619 0.333171 4.09921 0.918958 3.4984C1.50474 2.8976 2.44755 2.8976 4.33317 2.8976L9.6665 2.8976Z" fill="#979797" fill-opacity="0.5"/>
<path fill-rule="evenodd" clip-rule="evenodd" d="M12.4998 0.846317C12.4998 1.12954 12.276 1.35914 11.9998 1.35914L1.99984 1.35914C1.7237 1.35914 1.49984 1.12954 1.49984 0.846316C1.49984 0.563093 1.7237 0.333496 1.99984 0.333496L11.9998 0.333496C12.276 0.333496 12.4998 0.563094 12.4998 0.846317ZM12.4998 13.154C12.4998 13.4372 12.276 13.6668 11.9998 13.6668L1.99984 13.6668C1.7237 13.6668 1.49984 13.4372 1.49984 13.154C1.49984 12.8708 1.7237 12.6412 1.99984 12.6412L11.9998 12.6412C12.276 12.6412 12.4998 12.8708 12.4998 13.154Z" fill="#979797" fill-opacity="0.5"/>
</svg>
