<svg width="14" height="12" viewBox="0 0 14 12" fill="none" xmlns="http://www.w3.org/2000/svg">
<path fill-rule="evenodd" clip-rule="evenodd" d="M0.333496 2.66667C0.333496 1.40959 0.333496 0.781049 0.72402 0.390524C1.11454 0 1.74308 0 3.00016 0H11.0002C12.2572 0 12.8858 0 13.2763 0.390524C13.6668 0.781049 13.6668 1.40959 13.6668 2.66667C13.6668 3.92375 13.6668 4.55228 13.2763 4.94281C12.8858 5.33333 12.2572 5.33333 11.0002 5.33333H3.00016C1.74308 5.33333 1.11454 5.33333 0.72402 4.94281C0.333496 4.55228 0.333496 3.92375 0.333496 2.66667ZM3.00016 2.16667C2.72402 2.16667 2.50016 2.39052 2.50016 2.66667C2.50016 2.94281 2.72402 3.16667 3.00016 3.16667H4.3335C4.60964 3.16667 4.8335 2.94281 4.8335 2.66667C4.8335 2.39052 4.60964 2.16667 4.3335 2.16667H3.00016ZM5.8335 2.66667C5.8335 2.39052 6.05735 2.16667 6.3335 2.16667H11.0002C11.2763 2.16667 11.5002 2.39052 11.5002 2.66667C11.5002 2.94281 11.2763 3.16667 11.0002 3.16667H6.3335C6.05735 3.16667 5.8335 2.94281 5.8335 2.66667Z" fill="#979797" fill-opacity="0.5"/>
<path fill-rule="evenodd" clip-rule="evenodd" d="M0.333496 9.33333C0.333496 8.07625 0.333496 7.44772 0.72402 7.05719C1.11454 6.66667 1.74308 6.66667 3.00016 6.66667H11.0002C12.2572 6.66667 12.8858 6.66667 13.2763 7.05719C13.6668 7.44772 13.6668 8.07625 13.6668 9.33333C13.6668 10.5904 13.6668 11.219 13.2763 11.6095C12.8858 12 12.2572 12 11.0002 12H3.00016C1.74308 12 1.11454 12 0.72402 11.6095C0.333496 11.219 0.333496 10.5904 0.333496 9.33333ZM3.00016 8.83333C2.72402 8.83333 2.50016 9.05719 2.50016 9.33333C2.50016 9.60948 2.72402 9.83333 3.00016 9.83333H4.3335C4.60964 9.83333 4.8335 9.60948 4.8335 9.33333C4.8335 9.05719 4.60964 8.83333 4.3335 8.83333H3.00016ZM5.8335 9.33333C5.8335 9.05719 6.05735 8.83333 6.3335 8.83333H11.0002C11.2763 8.83333 11.5002 9.05719 11.5002 9.33333C11.5002 9.60948 11.2763 9.83333 11.0002 9.83333H6.3335C6.05735 9.83333 5.8335 9.60948 5.8335 9.33333Z" fill="#979797" fill-opacity="0.5"/>
</svg>
