<svg width="14" height="14" viewBox="0 0 14 14" fill="none" xmlns="http://www.w3.org/2000/svg">
<path fill-rule="evenodd" clip-rule="evenodd" d="M0.37973 2.33876C0.333496 2.5838 0.333496 2.87798 0.333496 3.46634V8.1665C0.333496 10.6807 0.333496 11.9377 1.11454 12.7188C1.89559 13.4998 3.15267 13.4998 5.66683 13.4998H8.3335C10.8477 13.4998 12.1047 13.4998 12.8858 12.7188C13.6668 11.9377 13.6668 10.6807 13.6668 8.1665V6.69844C13.6668 4.94353 13.6668 4.06607 13.1539 3.49572C13.1067 3.44326 13.0567 3.39333 13.0043 3.34615C12.4339 2.83317 11.5565 2.83317 9.80156 2.83317H9.55245C8.78332 2.83317 8.39876 2.83317 8.0404 2.73102C7.84353 2.67491 7.65379 2.59631 7.47491 2.49679C7.14928 2.31562 6.87735 2.04369 6.3335 1.49984L5.96666 1.133C5.78438 0.950721 5.69324 0.85958 5.59746 0.780181C5.18451 0.437861 4.67793 0.228028 4.14388 0.178087C4.02 0.166504 3.89111 0.166504 3.63333 0.166504C3.04497 0.166504 2.7508 0.166504 2.50575 0.212737C1.42704 0.416264 0.583256 1.26004 0.37973 2.33876ZM7.00016 6.33317C7.2763 6.33317 7.50016 6.55703 7.50016 6.83317V7.6665H8.3335C8.60964 7.6665 8.8335 7.89036 8.8335 8.1665C8.8335 8.44265 8.60964 8.6665 8.3335 8.6665H7.50016V9.49984C7.50016 9.77598 7.2763 9.99984 7.00016 9.99984C6.72402 9.99984 6.50016 9.77598 6.50016 9.49984V8.6665H5.66683C5.39069 8.6665 5.16683 8.44265 5.16683 8.1665C5.16683 7.89036 5.39069 7.6665 5.66683 7.6665H6.50016V6.83317C6.50016 6.55703 6.72402 6.33317 7.00016 6.33317Z" fill="#979797" fill-opacity="0.5"/>
</svg>
