<svg width="12" height="14" viewBox="0 0 12 14" fill="none" xmlns="http://www.w3.org/2000/svg">
<path fill-rule="evenodd" clip-rule="evenodd" d="M0.781049 1.11454C0 1.89559 0 3.15267 0 5.66683V8.3335C0 10.8477 0 12.1047 0.781049 12.8858C1.5621 13.6668 2.81918 13.6668 5.33333 13.6668H6.66667C9.18082 13.6668 10.4379 13.6668 11.219 12.8858C12 12.1047 12 10.8477 12 8.3335V5.66683C12 3.15267 12 1.89559 11.219 1.11454C10.4379 0.333496 9.18082 0.333496 6.66667 0.333496H5.33333C2.81918 0.333496 1.5621 0.333496 0.781049 1.11454ZM3.33333 5.16683C3.05719 5.16683 2.83333 5.39069 2.83333 5.66683C2.83333 5.94297 3.05719 6.16683 3.33333 6.16683H8.66667C8.94281 6.16683 9.16667 5.94297 9.16667 5.66683C9.16667 5.39069 8.94281 5.16683 8.66667 5.16683H3.33333ZM3.33333 7.8335C3.05719 7.8335 2.83333 8.05735 2.83333 8.3335C2.83333 8.60964 3.05719 8.8335 3.33333 8.8335H6.66667C6.94281 8.8335 7.16667 8.60964 7.16667 8.3335C7.16667 8.05735 6.94281 7.8335 6.66667 7.8335H3.33333Z" fill="#979797" fill-opacity="0.5"/>
</svg>
