<svg width="17" height="18" viewBox="0 0 17 18" fill="none" xmlns="http://www.w3.org/2000/svg">
<path d="M10.1665 0.166626H6.83317C3.69047 0.166626 2.11913 0.166626 1.14281 1.14294C0.166504 2.11925 0.166504 3.6906 0.166504 6.83329V7.66663C0.166504 8.12631 0.166504 8.54116 0.171935 8.91663H9.00128C9.08763 8.35058 9.28117 7.76051 9.77078 7.2709C10.2858 6.75586 10.912 6.56845 11.5045 6.48879C12.0425 6.41646 12.7039 6.41654 13.4253 6.41662H13.5744C14.2958 6.41654 14.9572 6.41646 15.4952 6.48879C15.9427 6.54897 16.4096 6.67063 16.8332 6.94858V6.83329C16.8332 3.6906 16.8332 2.11925 15.8569 1.14294C14.8805 0.166626 13.3092 0.166626 10.1665 0.166626Z" fill="#354150" fill-opacity="0.5"/>
<path d="M0.898737 11.9344C1.63097 12.6666 2.80948 12.6666 5.1665 12.6666H7.87484V16H5.1665C4.82133 16 4.5415 16.2798 4.5415 16.625C4.5415 16.9701 4.82133 17.25 5.1665 17.25H9.79196L9.77078 17.229C9.25574 16.714 9.06832 16.0878 8.98867 15.4953C8.91633 14.9573 8.91641 14.2959 8.9165 13.5745V10.9254C8.91645 10.5096 8.9164 10.1137 8.93022 9.74996H0.198465C0.257278 10.7982 0.424318 11.46 0.898737 11.9344Z" fill="#354150" fill-opacity="0.5"/>
<path fill-rule="evenodd" clip-rule="evenodd" d="M16.8332 11V13.5C16.8332 15.0713 16.8332 15.857 16.345 16.3451C15.8569 16.8333 15.0712 16.8333 13.4998 16.8333C11.9285 16.8333 11.1428 16.8333 10.6547 16.3451C10.1665 15.857 10.1665 15.0713 10.1665 13.5V11C10.1665 9.42861 10.1665 8.64294 10.6547 8.15478C11.1428 7.66663 11.9285 7.66663 13.4998 7.66663C15.0712 7.66663 15.8569 7.66663 16.345 8.15478C16.8332 8.64294 16.8332 9.42861 16.8332 11ZM12.0415 15.1666C12.0415 14.8214 12.3213 14.5416 12.6665 14.5416H14.3332C14.6783 14.5416 14.9582 14.8214 14.9582 15.1666C14.9582 15.5118 14.6783 15.7916 14.3332 15.7916H12.6665C12.3213 15.7916 12.0415 15.5118 12.0415 15.1666Z" fill="#354150" fill-opacity="0.5"/>
</svg>
