<svg width="17" height="17" viewBox="0 0 17 17" fill="none" xmlns="http://www.w3.org/2000/svg">
<path d="M0.166504 4.29142C0.166504 3.55597 0.166504 3.18825 0.224296 2.88195C0.478704 1.53355 1.53343 0.478826 2.88183 0.224418C3.18813 0.166626 3.55585 0.166626 4.29129 0.166626C4.61352 0.166626 4.77464 0.166626 4.92948 0.181105C5.59705 0.243531 6.23027 0.505822 6.74646 0.933722C6.86618 1.03297 6.98011 1.1469 7.20796 1.37475L7.6665 1.83329C8.34632 2.51311 8.68623 2.85302 9.09327 3.07948C9.31687 3.20388 9.55405 3.30213 9.80013 3.37227C10.2481 3.49996 10.7288 3.49996 11.6902 3.49996H12.0016C14.1952 3.49996 15.292 3.49996 16.005 4.14118C16.0706 4.20016 16.133 4.26257 16.1919 4.32815C16.8332 5.04109 16.8332 6.13791 16.8332 8.33155V10.1666C16.8332 13.3093 16.8332 14.8807 15.8569 15.857C14.8805 16.8333 13.3092 16.8333 10.1665 16.8333H6.83317C3.69047 16.8333 2.11913 16.8333 1.14281 15.857C0.166504 14.8807 0.166504 13.3093 0.166504 10.1666V4.29142Z" fill="#FAF603"/>
<path fill-rule="evenodd" clip-rule="evenodd" d="M8.70817 6.83329C8.70817 6.48811 8.98799 6.20829 9.33317 6.20829H13.4998C13.845 6.20829 14.1248 6.48811 14.1248 6.83329C14.1248 7.17847 13.845 7.45829 13.4998 7.45829H9.33317C8.98799 7.45829 8.70817 7.17847 8.70817 6.83329Z" fill="#FAF603"/>
<path d="M12.6545 1.01741C12.5266 0.999959 12.3742 0.999959 12.0694 0.999959H8.49984L8.80806 1.31923C9.36306 1.89412 9.57644 2.10872 9.8229 2.25076C9.96597 2.33321 10.1177 2.39833 10.2752 2.44481C10.5464 2.5249 10.8438 2.52944 11.6287 2.52944L11.9073 2.52944C12.7427 2.52943 13.4161 2.52942 13.9489 2.59881C14.0818 2.61611 14.2099 2.63814 14.3332 2.66663C14.1785 1.80257 13.5034 1.13317 12.6545 1.01741Z" fill="#FAF603"/>
</svg>
