<svg width="64" height="40" viewBox="0 0 64 40" fill="none" xmlns="http://www.w3.org/2000/svg">
<path fill-rule="evenodd" clip-rule="evenodd" d="M11.6247 36.5117C11.6247 34.7038 13.0903 33.2382 14.8982 33.2382L60.7265 33.2382C62.5344 33.2382 64 34.7038 64 36.5117C64 38.3196 62.5344 39.7852 60.7265 39.7852L14.8982 39.7852C13.0903 39.7852 11.6247 38.3196 11.6247 36.5117Z" fill="#D1D3D6"/>
<path fill-rule="evenodd" clip-rule="evenodd" d="M27.7402 20.1444C27.7402 18.4756 29.093 17.1227 30.7618 17.1227L60.9783 17.1227C62.6472 17.1227 64 18.4756 64 20.1444C64 21.8132 62.6472 23.166 60.9783 23.166L30.7618 23.166C29.093 23.166 27.7402 21.8132 27.7402 20.1444Z" fill="#D1D3D6"/>
<path fill-rule="evenodd" clip-rule="evenodd" d="M44.8629 3.27342C44.8629 1.46554 46.3284 -3.71933e-05 48.1363 -3.71933e-05L60.7265 -3.71933e-05C62.5344 -3.71933e-05 64 1.46554 64 3.27342C64 5.0813 62.5344 6.54688 60.7265 6.54688L48.1363 6.54687C46.3284 6.54687 44.8629 5.0813 44.8629 3.27342Z" fill="#D1D3D6"/>
<path d="M4.65631 0.125866C6.92505 0.125866 8.76423 1.96504 8.76423 4.23378L8.76423 35.8921C8.76423 38.1608 6.92505 40 4.65631 40C2.38758 40 0.548405 38.1608 0.548405 35.8921L0.548405 4.23378C0.548405 1.96504 2.38758 0.125866 4.65631 0.125866ZM21.444 17.16C23.2136 17.16 24.6482 18.5946 24.6482 20.3642C24.6482 22.1338 23.2136 23.5684 21.444 23.5684H9.72274C7.95312 23.5684 6.51857 22.1338 6.51857 20.3642C6.51857 18.5946 7.95312 17.16 9.72274 17.16H21.444ZM38.5775 0.125866C40.3547 0.125866 41.7954 1.56655 41.7954 3.34373C41.7954 5.12091 40.3547 6.5616 38.5775 6.5616L4.72458 6.5616C2.94741 6.5616 1.50672 5.12091 1.50672 3.34373C1.50672 1.56655 2.94741 0.125866 4.72458 0.125866L38.5775 0.125866Z" fill="#354150"/>
</svg>
