<svg width="13" height="14" viewBox="0 0 13 14" fill="none" xmlns="http://www.w3.org/2000/svg">
<path fill-rule="evenodd" clip-rule="evenodd" d="M1.15605 1.1143C0.375 1.89535 0.375 3.15243 0.375 5.66658V8.33325C0.375 10.8474 0.375 12.1045 1.15605 12.8855C1.9371 13.6666 3.19418 13.6666 5.70833 13.6666H7.04167C9.55582 13.6666 10.8129 13.6666 11.594 12.8855C12.375 12.1045 12.375 10.8474 12.375 8.33325V5.66658C12.375 3.15243 12.375 1.89535 11.594 1.1143C10.8129 0.333252 9.55582 0.333252 7.04167 0.333252H5.70833C3.19418 0.333252 1.9371 0.333252 1.15605 1.1143ZM3.20833 4.33325C3.20833 4.05711 3.43219 3.83325 3.70833 3.83325H9.04167C9.31781 3.83325 9.54167 4.05711 9.54167 4.33325C9.54167 4.60939 9.31781 4.83325 9.04167 4.83325H3.70833C3.43219 4.83325 3.20833 4.60939 3.20833 4.33325ZM3.20833 6.99992C3.20833 6.72378 3.43219 6.49992 3.70833 6.49992H9.04167C9.31781 6.49992 9.54167 6.72378 9.54167 6.99992C9.54167 7.27606 9.31781 7.49992 9.04167 7.49992H3.70833C3.43219 7.49992 3.20833 7.27606 3.20833 6.99992ZM3.70833 9.16658C3.43219 9.16658 3.20833 9.39044 3.20833 9.66658C3.20833 9.94273 3.43219 10.1666 3.70833 10.1666H7.04167C7.31781 10.1666 7.54167 9.94273 7.54167 9.66658C7.54167 9.39044 7.31781 9.16658 7.04167 9.16658H3.70833Z" fill="#354150"/>
</svg>
