<svg width="30" height="30" viewBox="0 0 30 30" fill="none" xmlns="http://www.w3.org/2000/svg">
<path d="M23.3116 15.6473L23.8293 13.7154C24.4335 11.4603 24.7356 10.3328 24.5081 9.35703C24.3285 8.58657 23.9244 7.88668 23.347 7.34587C22.6157 6.66095 21.4881 6.35883 19.2331 5.75458C16.978 5.15033 15.8504 4.84821 14.8747 5.07573C14.1042 5.25537 13.4043 5.65945 12.8635 6.23687C12.2771 6.86298 11.9713 7.77957 11.5162 9.44561C11.4398 9.7254 11.3592 10.0263 11.2723 10.3506L11.2722 10.3508L10.7546 12.2826C10.1503 14.5377 9.84821 15.6652 10.0757 16.641C10.2554 17.4115 10.6595 18.1114 11.2369 18.6522C11.9682 19.3371 13.0957 19.6392 15.3508 20.2435L15.3508 20.2435C17.3834 20.7881 18.4999 21.0873 19.415 20.9744C19.5152 20.9621 19.6129 20.9448 19.7092 20.9223C20.4796 20.7427 21.1795 20.3386 21.7203 19.7612C22.4052 19.0299 22.7074 17.9024 23.3116 15.6473Z" fill="white"/>
<path opacity="0.5" d="M19.4149 20.9745C19.2064 21.6128 18.8398 22.1903 18.347 22.6519C17.6157 23.3368 16.4881 23.6389 14.2331 24.2432C11.978 24.8474 10.8504 25.1496 9.87466 24.922C9.10421 24.7424 8.40432 24.3383 7.86351 23.7609C7.17859 23.0296 6.87647 21.9021 6.27222 19.647L5.75458 17.7152C5.15033 15.4601 4.84821 14.3325 5.07573 13.3568C5.25537 12.5863 5.65945 11.8864 6.23687 11.3456C6.96815 10.6607 8.09569 10.3586 10.3508 9.75431C10.7774 9.64 11.1637 9.53649 11.5162 9.44534C11.5162 9.44545 11.5162 9.44524 11.5162 9.44534C11.4398 9.72513 11.3591 10.0266 11.2722 10.3508L10.7546 12.2827C10.1503 14.5377 9.84821 15.6653 10.0757 16.6411C10.2554 17.4115 10.6595 18.1114 11.2369 18.6522C11.9682 19.3371 13.0957 19.6393 15.3508 20.2435C17.3833 20.7881 18.4999 21.0873 19.4149 20.9745Z" fill="white"/>
</svg>
