<svg width="17" height="17" viewBox="0 0 17 17" fill="none" xmlns="http://www.w3.org/2000/svg">
<path fill-rule="evenodd" clip-rule="evenodd" d="M8.5013 16.8332C4.57293 16.8332 2.60875 16.8332 1.38836 15.6128C0.167969 14.3924 0.167969 12.4282 0.167969 8.49984C0.167969 4.57147 0.167969 2.60728 1.38836 1.38689C2.60875 0.166504 4.57293 0.166504 8.5013 0.166504C12.4297 0.166504 14.3939 0.166504 15.6142 1.38689C16.8346 2.60728 16.8346 4.57147 16.8346 8.49984C16.8346 12.4282 16.8346 14.3924 15.6142 15.6128C14.3939 16.8332 12.4297 16.8332 8.5013 16.8332ZM8.5013 4.95817C7.98353 4.95817 7.5638 5.3779 7.5638 5.89567C7.5638 6.24085 7.28398 6.52067 6.9388 6.52067C6.59362 6.52067 6.3138 6.24085 6.3138 5.89567C6.3138 4.68755 7.29318 3.70817 8.5013 3.70817C9.70942 3.70817 10.6888 4.68755 10.6888 5.89567C10.6888 6.48803 10.4525 7.02649 10.0704 7.41981C9.99355 7.49895 9.92021 7.57223 9.85024 7.64214C9.67038 7.82184 9.5128 7.97928 9.37455 8.15692C9.19203 8.39144 9.1263 8.56381 9.1263 8.70817V9.33317C9.1263 9.67835 8.84648 9.95817 8.5013 9.95817C8.15612 9.95817 7.8763 9.67835 7.8763 9.33317V8.70817C7.8763 8.16218 8.13048 7.7202 8.38811 7.38918C8.57873 7.14425 8.81833 6.90512 9.01278 6.71106C9.07144 6.65252 9.12599 6.59808 9.17384 6.54881C9.33845 6.37936 9.4388 6.14987 9.4388 5.89567C9.4388 5.3779 9.01907 4.95817 8.5013 4.95817ZM8.5013 12.6665C8.96154 12.6665 9.33463 12.2934 9.33463 11.8332C9.33463 11.3729 8.96154 10.9998 8.5013 10.9998C8.04106 10.9998 7.66797 11.3729 7.66797 11.8332C7.66797 12.2934 8.04106 12.6665 8.5013 12.6665Z" fill="#FAF603"/>
</svg>
